<svg xmlns="http://www.w3.org/2000/svg" width="31.403" height="49.838" viewBox="0 0 31.403 49.838">
  <path id="Icon" d="M728.91,3068.831s6.4,1.369,6.308.83c-.865-5-12.841-11.237-12.841-11.237s5.893.183,5.856-.333-8.391-14.76-20.951-12.733c-7.546,1.218-1.089,17.974,3.492,19.6.43.152,4.168-5.536,4.168-5.536s-2.742,9.3-.563,15.168c.159.43,4.393-3.985,4.393-3.985s-2.1,6.235-1.464,7.529c1.651,3.358,7.546,7.639,7.546,7.639s-1.239,5.242-.9,5.869,3.115,3.358,3.867,3.358,4.28-5.168,4.243-5.906-1.351-6.09-1.351-6.09,4.506-4.54,4.506-5.425C735.218,3074.329,728.91,3068.831,728.91,3068.831Zm-19.036-18.049c15.093,0,18.81,37.978,18.81,37.978C719.518,3053.441,709.874,3050.782,709.874,3050.782Z" transform="translate(-703.816 -3045.16)" fill="#d3dfdf"/>
</svg>
