<svg xmlns="http://www.w3.org/2000/svg" width="50.537" height="56.212" viewBox="0 0 50.537 56.212">
  <path id="Icon" d="M1205.533,3005.1l2.588-3.846a36.85,36.85,0,0,0,4.493.108c.855-.173,9.213-9.739,8.964-10.732s-9.655,1.656-9.655,1.656-2.824-4.275-3.382-4.2-4.383,6.558-4.269,7.96a20.382,20.382,0,0,0,.753,3.216l-2.41,4.183c-7.52-3.453-17.047-2.067-23.962,4.244-9.046,8.253-10.187,21.775-2.55,30.2s21.164,8.563,30.21.311,10.187-21.777,2.549-30.2A19.048,19.048,0,0,0,1205.533,3005.1Zm-2.15,30.2c-7.349,6.706-18.34,6.593-24.545-.25s-5.279-17.831,2.071-24.537a17.948,17.948,0,0,1,19.59-3.39l-2.06,3.577a13.823,13.823,0,0,0-14.936,2.673c-5.654,5.158-6.367,13.608-1.594,18.873s13.229,5.353,18.881.194,6.368-13.611,1.594-18.874a11.912,11.912,0,0,0-1.579-1.436l2.323-3.452a15.646,15.646,0,0,1,2.327,2.086C1211.66,3017.607,1210.733,3028.593,1203.383,3035.3Zm-14.694-16.206a5.162,5.162,0,1,0,7.552.076c-.033-.036-.074-.062-.109-.094l2.35-3.495a8.633,8.633,0,0,1,.829.787c3.341,3.685,2.843,9.6-1.116,13.213s-9.875,3.549-13.217-.137-2.842-9.6,1.116-13.209a9.7,9.7,0,0,1,10.281-1.956l-2.083,3.613A5.552,5.552,0,0,0,1188.689,3019.093Z" transform="translate(-1171.046 -2988.091)" fill="#d7e1e0"/>
</svg>
