<svg xmlns="http://www.w3.org/2000/svg" width="40.085" height="50.177" viewBox="0 0 40.085 50.177">
  <path id="Icon" d="M1695.931,3045.368c-1.688-2.077-38.23,3.46-39.023,4.747s1.49,42.131,3.574,43.91,34.852.99,35.449,0S1697.618,3047.444,1695.931,3045.368Zm-19.687,2.917a.882.882,0,1,1-.314,1.362A1.013,1.013,0,0,1,1676.244,3048.285Zm1.693,45.317a2.21,2.21,0,1,1,1.048-3.2A2.414,2.414,0,0,1,1677.937,3093.6Zm15.264-5.7c-.544.825-28.32,1.485-30.22,0s-3.985-32.433-3.261-33.506,31.942-5.695,33.481-3.961S1693.745,3087.077,1693.2,3087.9Z" transform="translate(-1656.746 -3044.907)" fill="#d3dfdf"/>
</svg>
