<svg xmlns="http://www.w3.org/2000/svg" width="55.44" height="45.684" viewBox="0 0 55.44 45.684">
  <path id="Icon" d="M1.671,43.4C1.372,41.852.59,20.372.229,10.068L55.424,8c.047,10.891-.027,35.009-.027,35.009s.08,2.654-1.6,2.615c-5.437-.118-50.047.058-50.047.058A2.7,2.7,0,0,1,1.671,43.4ZM6.062,31.582,6.29,41l14.31-.075.091-9.706Zm33.511-.295-.243,9.606,13.175.064.175-9.926Zm-16.085-.231-.415,9.8,14.213-.151V31Zm2.552-6.894.1,1.473,25.132-.162-.063-1.487ZM5.239,14.105l.585,11.347,16.035.029L21.77,13.16ZM26.21,21.512l.1,1.473,25.132-.16-.064-1.489Zm.05-2.644.1,1.473,25.132-.161-.065-1.49ZM.042,4.626s-.468-2.895,1.705-3S52.708,0,52.708,0s2.513-.055,2.658,2.965c.024.509.041,1.988.053,4.09L.189,8.9C.1,6.282.042,4.626.042,4.626Zm2.638-.849a2.084,2.084,0,0,0,.361,2.789,1.884,1.884,0,0,0,2.51-.993,2.081,2.081,0,0,0-.361-2.788,1.34,1.34,0,0,0-.718-.2A2.181,2.181,0,0,0,2.681,3.777ZM7.409,3.44a2.082,2.082,0,0,0,.361,2.789,1.882,1.882,0,0,0,2.51-.991A2.082,2.082,0,0,0,9.919,2.45a1.342,1.342,0,0,0-.72-.2A2.18,2.18,0,0,0,7.409,3.44Zm4.66-.013a2.081,2.081,0,0,0,.361,2.789,1.884,1.884,0,0,0,2.511-.991,2.084,2.084,0,0,0-.361-2.79,1.343,1.343,0,0,0-.719-.2A2.179,2.179,0,0,0,12.069,3.427Z" transform="translate(0 0)" fill="#d3dfdf"/>
</svg>
